<svg xmlns="http://www.w3.org/2000/svg" width="90" height="20" viewBox="0 0 90 20">
    <g fill="none" fill-rule="evenodd">
        <g>
            <g>
                <path d="M35.925 3.65c-.806-.18-1.632-.247-2.456-.2h-2.8l-1.15 5.481h1.206c2.063 0 3.444-.131 4.131-.393.663-.233 1.235-.67 1.631-1.25.402-.543.621-1.2.625-1.876.019-.4-.088-.795-.306-1.13-.216-.302-.526-.524-.881-.632z" transform="translate(-555 -24) translate(555 24)"/>
                <path fill="#0056D0" fill-rule="nonzero" d="M82.356 0c2.234 0 3.957.523 5.169 1.569 1.225 1.05 1.957 2.563 2.019 4.175l-3.75.168c-.039-.798-.392-1.548-.981-2.087-.719-.536-1.607-.794-2.5-.725-.813-.074-1.627.126-2.313.569-.436.348-.683.88-.669 1.437-.01.522.22 1.02.625 1.35.874.608 1.819 1.107 2.813 1.488 2.191.954 3.569 1.727 4.131 2.318.892.875 1.375 2.084 1.331 3.332.01 1.655-.719 3.23-1.987 4.293-1.321 1.188-3.167 1.782-5.538 1.782-1.457.037-2.905-.242-4.243-.819-1.086-.446-1.982-1.254-2.538-2.288-.504-1.048-.74-2.206-.688-3.368l3.75-.194c.07 1.181.27 1.981.626 2.394.57.675 1.624 1.012 3.162 1.012.975.08 1.95-.16 2.775-.687.532-.385.85-1 .856-1.656 0-.56-.259-1.088-.7-1.432-.849-.557-1.756-1.02-2.706-1.381-1.11-.469-2.188-1.011-3.225-1.625-.664-.414-1.214-.988-1.6-1.669-.403-.734-.606-1.562-.587-2.4-.033-1.516.602-2.97 1.737-3.975C78.445.527 80.123 0 82.356 0zM65.981 0c2.234 0 3.963.531 5.188 1.594 1.225 1.05 1.957 2.563 2.019 4.175l-3.75.168c-.039-.798-.392-1.548-.982-2.087-.718-.536-1.606-.794-2.5-.725-.816-.086-1.637.105-2.331.544-.445.343-.702.875-.694 1.437-.013.523.218 1.022.625 1.35.874.608 1.819 1.107 2.813 1.488 2.187.943 3.55 1.706 4.175 2.294.892.874 1.375 2.083 1.331 3.33.016 1.652-.703 3.226-1.963 4.295-1.325 1.187-3.175 1.78-5.537 1.78-1.47.053-2.934-.218-4.288-.793-1.085-.446-1.981-1.254-2.537-2.288-.504-1.048-.74-2.206-.688-3.368l3.75-.194c.07 1.181.27 1.981.625 2.394.571.675 1.625 1.012 3.163 1.012.975.08 1.95-.16 2.775-.687.53-.386.846-1 .85-1.656.002-.56-.257-1.09-.7-1.432-.846-.56-1.751-1.023-2.7-1.381-1.1-.468-2.167-1.011-3.194-1.625-.664-.414-1.214-.988-1.6-1.669-.403-.734-.605-1.562-.587-2.4-.033-1.516.602-2.97 1.737-3.975C62.081.527 63.748 0 65.981 0zM10.47.325c.987-.022 1.975.022 2.956.131.837.102 1.645.372 2.375.794.625.365 1.136.897 1.475 1.538.342.664.516 1.402.506 2.15.015.99-.304 1.957-.906 2.743-.7.846-1.642 1.457-2.7 1.75.899.217 1.702.722 2.287 1.438.54.654.832 1.477.826 2.325-.005 1.153-.344 2.28-.976 3.243-.627 1.012-1.569 1.79-2.68 2.213-1.505.507-3.09.736-4.676.675H0l3.981-19zm24.675 0c1.114-.046 2.228.12 3.281.487.782.319 1.44.882 1.875 1.607.481.81.72 1.74.688 2.681-.002.96-.19 1.912-.557 2.8-.311.807-.776 1.545-1.368 2.175-.499.521-1.09.945-1.744 1.25-.801.322-1.642.532-2.5.625-1.147.108-2.299.15-3.45.125h-2.5l-1.513 7.25h-3.919l3.982-19zm17.025 0l3.087 19H51.55L49.331 4.313l-8.669 15.012h-3.575l10.744-19h4.338zM10.475 11.287l-.225.013H5.606L4.57 16.262h3.75c1.07.06 2.142-.043 3.181-.306.527-.19.981-.54 1.3-1 .307-.43.475-.945.481-1.475.015-.598-.243-1.17-.7-1.556-.678-.479-1.504-.7-2.331-.625zm23.406-7.845l-.412.014h-2.8l-1.15 5.482h1.206c2.063 0 3.444-.132 4.131-.394.663-.233 1.235-.67 1.631-1.25.395-.548.605-1.207.6-1.881.019-.4-.088-.796-.306-1.132-.21-.295-.51-.514-.856-.625-.806-.179-1.632-.246-2.456-.2zm-23.115.052l-.516.006H7.219L6.25 7.994h3c.973.04 1.947-.054 2.894-.281.533-.153.999-.484 1.319-.938.285-.404.44-.886.443-1.381.019-.437-.131-.864-.418-1.194-.313-.331-.726-.55-1.175-.625-.686-.068-1.375-.093-2.063-.075z" transform="translate(-555 -24) translate(555 24)"/>
            </g>
        </g>
    </g>
</svg>
